<svg enable-background="new 0 0 324 84" height="84" viewBox="0 0 324 84" width="324" xmlns="http://www.w3.org/2000/svg"><path d="m62.24 77.95h40.46c1.29 0 2.53-.45 3.65-1.09s2.27-1.44 2.92-2.55 1.09-2.37 1.09-3.65-.45-2.54-1.09-3.64l-27.34-47.03c-.65-1.11-1.43-1.91-2.55-2.55s-2.72-1.09-4.01-1.09-2.53.45-3.65 1.09-1.91 1.44-2.55 2.55l-6.93 12.03-13.85-23.33c-.65-1.11-1.43-2.28-2.55-2.92s-2.35-.73-3.65-.73c-1.29 0-2.53.09-3.65.73s-2.27 1.81-2.92 2.92l-33.89 58.33c-.65 1.11-.73 2.36-.73 3.64s.08 2.54.73 3.65 1.8 1.91 2.92 2.55c1.11.64 2.35 1.09 3.64 1.09h25.52c10.11 0 17.47-4.54 22.6-13.12l12.39-21.51 6.56-11.3 20.05 34.27h-26.61zm-28.8-11.66h-17.86l26.61-45.93 13.49 22.97-8.93 15.57c-3.41 5.57-7.3 7.39-13.31 7.39z" fill="#00dc82"/><g clip-rule="evenodd" fill-rule="evenodd"><path d="m303.76.5-9.4 28.77-39.78-28.77z" fill="#34495e"/><path d="m237.16 53.71 24.59-17.79 15.2 46.56z" fill="#34495e"/><g fill="#41b883"><path d="m251.07 3 24.58 17.78-39.77 28.78z"/><path d="m281.39 82.5-9.39-28.77 49.17-.01z"/></g></g><path d="m322.51 49.66-15.2-46.56-15.19 46.56z" fill="#41b883"/><path d="m197.06 47.45h-22.43v22.48h-11.95v-22.48h-22.48v-11.9h22.48v-22.48h11.95v22.48h22.43z" fill="#4d5955"/></svg>